<svg width="5" height="13" viewBox="0 0 5 13" fill="none" xmlns="http://www.w3.org/2000/svg">
<path d="M2.26131 8.12988C1.84477 8.12988 1.43759 8.24729 1.09126 8.46727C0.744923 8.68724 0.474987 8.9999 0.315587 9.36571C0.156186 9.73151 0.114479 10.134 0.195741 10.5224C0.277003 10.9107 0.477584 11.2674 0.772118 11.5474C1.06665 11.8274 1.44191 12.018 1.85044 12.0953C2.25897 12.1725 2.68242 12.1329 3.06725 11.9814C3.45208 11.8298 3.781 11.5732 4.01241 11.244C4.24382 10.9148 4.36734 10.5278 4.36734 10.1318C4.36734 9.60087 4.14546 9.09167 3.7505 8.71624C3.35554 8.3408 2.81986 8.12988 2.26131 8.12988Z" fill="white"/>
<path d="M3.43136 3.78855C3.08502 4.00852 2.67784 4.12594 2.26131 4.12594C1.70275 4.12594 1.16707 3.91502 0.772117 3.53958C0.377159 3.16415 0.155273 2.65495 0.155273 2.124C0.155273 1.72806 0.27879 1.34101 0.510204 1.01179C0.741618 0.682573 1.07054 0.425981 1.45536 0.274459C1.84019 0.122938 2.26364 0.0832928 2.67217 0.160538C3.0807 0.237783 3.45596 0.428448 3.7505 0.708423C4.04503 0.988399 4.24561 1.34511 4.32687 1.73345C4.40813 2.12178 4.36643 2.5243 4.20703 2.89011C4.04763 3.25592 3.77769 3.56857 3.43136 3.78855Z" fill="white"/>
</svg>
