<svg width="32" height="26" viewBox="0 0 32 26" fill="none" xmlns="http://www.w3.org/2000/svg">
<path d="M30.0544 3.55346H15.084L9.20769 24.2397C9.02997 24.791 8.52574 25.1727 7.94677 25.1927C7.93044 25.1927 7.91466 25.1931 7.89916 25.1931C7.33915 25.1931 6.83271 24.8524 6.62329 24.3296L4.2209 18.3238H1.94508C1.18611 18.3239 0.571289 17.7086 0.571289 16.9499C0.571289 16.191 1.18673 15.5759 1.94508 15.5759H5.15129C5.71248 15.5759 6.21851 15.9178 6.42716 16.4398L7.75847 19.7678L12.7739 1.75938C12.9565 1.191 13.4853 0.805664 14.0821 0.805664H30.0545C30.8137 0.805664 31.4285 1.4209 31.4285 2.17946C31.4285 2.93802 30.8132 3.55346 30.0544 3.55346ZM30.7948 22.016L25.3789 15.9326L30.5399 10.2036C30.6312 10.103 30.6533 9.95813 30.5993 9.83398C30.5436 9.71003 30.4209 9.6301 30.2851 9.6301H27.02C26.9202 9.6301 26.826 9.67363 26.7598 9.74913L23.2955 13.7663L19.8578 9.75038C19.7928 9.67404 19.6974 9.6301 19.5968 9.6301H16.1826C16.0473 9.6301 15.9246 9.70962 15.8697 9.8328C15.8137 9.95633 15.8366 10.101 15.9268 10.2018L21.0302 15.9327L15.657 22.0174C15.5672 22.1188 15.5459 22.2632 15.6007 22.3859C15.657 22.5095 15.7797 22.588 15.9141 22.588H19.2982C19.4001 22.588 19.4967 22.543 19.5617 22.4645L23.1479 18.1612L26.8192 22.4678C26.885 22.5446 26.9803 22.5884 27.0809 22.5884H30.5391C30.6749 22.5884 30.7976 22.5095 30.8524 22.3859C30.9077 22.2619 30.8856 22.1174 30.7948 22.016Z" fill="white"/>
</svg>
