<svg width="32" height="32" viewBox="0 0 32 32" fill="none" xmlns="http://www.w3.org/2000/svg">
<path d="M24.1778 2.8236C16.9127 -1.60662 7.39779 0.699827 2.96762 7.96493C-1.46255 15.23 0.843843 24.7449 8.10895 29.1751C8.5137 29.4219 8.92563 29.6475 9.34311 29.8529C9.34986 29.8561 9.35667 29.8596 9.36354 29.8628C11.5213 30.9201 13.831 31.4279 16.118 31.4279C21.3259 31.4279 26.4151 28.7962 29.3192 24.0338C33.7493 16.7686 31.4429 7.25383 24.1778 2.8236ZM12.3993 3.39591L12.211 4.14425L8.18711 6.40888L7.36657 6.2024C8.8016 4.91333 10.511 3.95441 12.3993 3.39591ZM8.69161 20.0112L8.47513 20.2508C7.80176 20.9959 7.51278 21.9911 7.68213 22.981L8.2921 26.5458C5.82901 24.7188 4.09716 22.1137 3.36581 19.0966C2.81351 16.8182 2.87649 14.4874 3.52275 12.2974L7.31094 14.4654C7.68653 14.6803 7.87511 15.1235 7.76946 15.5432C7.4965 16.6278 7.79236 17.7605 8.56083 18.573L8.67661 18.6954C9.02188 19.0604 9.02839 19.6384 8.69161 20.0112ZM16.7082 29.1383L16.4721 27.6977L16.6623 27.6134C17.3487 27.3092 18.1503 27.5406 18.5686 28.1639L19.0148 28.8287C18.2487 29.0006 17.4775 29.1037 16.7082 29.1383ZM27.3686 22.8443C25.916 25.2265 23.7949 27.0451 21.2731 28.1072C21.2536 28.0697 21.2323 28.0328 21.2081 27.9969L20.4656 26.8906C19.4278 25.3445 17.4389 24.7701 15.7364 25.5247L14.7391 25.9669C14.2638 26.1777 13.9908 26.6828 14.0749 27.1959L14.3761 29.0341C13.172 28.8712 11.9924 28.539 10.8661 28.0427L9.93403 22.5956C9.88353 22.3007 9.96965 22.0043 10.1703 21.7824L10.3868 21.5428C11.5176 20.2913 11.4955 18.3509 10.3366 17.1255L10.2208 17.0031C9.99189 16.7611 9.90378 16.4238 9.98502 16.1006C10.3395 14.6918 9.70652 13.204 8.44578 12.4824L4.36885 10.1493C4.53705 9.81202 4.7196 9.47988 4.91813 9.15432C5.13672 8.79596 5.3708 8.45063 5.61868 8.11831L8.07146 8.73551C8.16337 8.75866 8.25696 8.77011 8.3502 8.77011C8.54492 8.77011 8.73814 8.72033 8.91045 8.6233L13.7591 5.89449C14.0322 5.74081 14.2302 5.48172 14.3066 5.17778L14.8402 3.05726C14.8523 3.00905 14.8601 2.96083 14.8658 2.91274C15.3 2.86947 15.7343 2.84663 16.1673 2.84663C18.5527 2.84663 20.8998 3.50059 22.9881 4.77411C23.2313 4.92237 23.468 5.07834 23.6992 5.24034C23.6978 5.24197 23.6961 5.24324 23.6947 5.24474L21.8339 7.2786L16.93 7.46899C16.5506 7.48369 16.2033 7.68601 16.0034 8.00868L13.8671 11.4559C13.619 11.8563 13.642 12.3678 13.9251 12.7442L15.2773 14.5424C15.5572 14.9148 15.71 15.3763 15.7076 15.8421L15.6955 18.1866C15.6907 19.1139 16.0938 19.9894 16.8014 20.5887C17.3714 21.0717 18.0857 21.33 18.8197 21.33C18.9967 21.33 19.1751 21.315 19.3527 21.2844L21.9569 20.8363C22.9162 20.6713 23.8073 20.1857 24.466 19.4692C24.8592 19.0416 25.3954 18.7958 25.9759 18.7773C26.5558 18.7579 27.1073 18.9697 27.527 19.3713L28.2594 20.0723C28.355 20.1637 28.4627 20.2341 28.5766 20.2858C28.27 21.1695 27.8671 22.0268 27.3686 22.8443ZM29.1754 17.7865L29.1067 17.7207C28.24 16.8912 27.1025 16.4553 25.903 16.4937C24.7038 16.5321 23.5962 17.0395 22.7842 17.9229C22.4653 18.2698 22.0339 18.5048 21.5695 18.5847L18.9653 19.0328C18.6281 19.0908 18.39 18.9403 18.278 18.8455C18.166 18.7506 17.9783 18.5404 17.9801 18.1984L17.9922 15.854C17.9971 14.8919 17.6814 13.9385 17.1033 13.1695L16.2206 11.9956L17.6255 9.72837L22.3992 9.5431C22.7041 9.53129 22.9917 9.39798 23.1977 9.17276L25.3806 6.78706C25.4049 6.76054 25.4272 6.733 25.4485 6.70491C27.1414 8.39361 28.3433 10.5193 28.9209 12.9021C29.3148 14.527 29.3955 16.1785 29.1754 17.7865Z" fill="white"/>
</svg>
