<svg width="224" height="273" viewBox="0 0 224 273" fill="none" xmlns="http://www.w3.org/2000/svg">
<g clip-path="url(#clip0_932_7178)">
<path d="M197.1 34.7784H67.049C63.019 34.7784 59.3528 36.4295 56.6929 39.0888C54.0333 41.7487 52.3822 45.415 52.3822 49.4452V129.39C52.3822 133.42 54.0333 137.086 56.6929 139.746C59.3528 142.406 63.019 144.057 67.049 144.057H157.972C158.904 144.057 159.747 144.438 160.355 145.052L185.869 170.567V147.406C185.869 145.556 187.368 144.057 189.218 144.057H197.1C201.13 144.057 204.796 142.406 207.456 139.746C210.116 137.086 211.767 133.42 211.767 129.39V49.4452C211.767 45.415 210.116 41.7487 207.456 39.0888C204.796 36.4295 201.13 34.7784 197.1 34.7784ZM67.049 28.0807H197.1C202.979 28.0807 208.321 30.483 212.192 34.3534C216.062 38.2237 218.465 43.5662 218.465 49.4452V129.39C218.465 135.269 216.062 140.611 212.192 144.482C208.321 148.352 202.979 150.754 197.1 150.754H192.567V178.651C192.567 179.509 192.24 180.365 191.586 181.019C190.278 182.327 188.158 182.327 186.85 181.019V181.019L156.586 150.754H67.049C61.1702 150.754 55.8281 148.352 51.9575 144.482C48.0869 140.611 45.6846 135.269 45.6846 129.39V49.4452C45.6846 43.5662 48.0869 38.2237 51.9575 34.3534C55.8281 30.483 61.1702 28.0807 67.049 28.0807Z" fill="#F2F2F2"/>
<path d="M21.6981 0.00226515H114.209C118.658 0.00226515 122.7 1.8203 125.627 4.7482C128.555 7.67553 130.373 11.7174 130.373 16.1662V31.4296C130.373 33.279 128.874 34.7784 127.024 34.7784H67.0487C63.0187 34.7784 59.3528 36.4296 56.6931 39.0889C54.033 41.7488 52.3821 45.4151 52.3821 49.4453V86.3482C52.3821 87.2802 52.0013 88.1226 51.387 88.7296L29.6728 110.444V110.444C28.3653 111.752 26.2448 111.752 24.9371 110.444C24.283 109.79 23.9562 108.933 23.9562 108.076V89.1988H21.6981C17.2493 89.1988 13.2074 87.3808 10.2796 84.4529C7.35172 81.5255 5.53418 77.4831 5.53418 73.0343V16.1662C5.53418 11.7174 7.35172 7.67553 10.2796 4.7482C13.2074 1.81972 17.2495 0.00226515 21.6981 0.00226515ZM114.209 6.69995H21.6981C19.0984 6.69995 16.7321 7.76622 15.015 9.48308C13.2978 11.2005 12.2318 13.5668 12.2318 16.1662V73.0343C12.2318 75.6343 13.2978 78.0005 15.015 79.7174C16.7321 81.4348 19.0984 82.5011 21.6981 82.5011H27.3049C29.1545 82.5011 30.6537 84.0005 30.6537 85.8499V99.9912L45.6845 84.961V49.4453C45.6845 43.5662 48.0871 38.2238 51.9574 34.3534C55.8278 30.4831 61.1699 28.0808 67.0487 28.0808H123.675V16.1662C123.675 13.5668 122.609 11.2005 120.892 9.48308C119.175 7.76622 116.809 6.69995 114.209 6.69995Z" fill="#F2F2F2"/>
<path fill-rule="evenodd" clip-rule="evenodd" d="M114.209 6.69995H21.6988C19.099 6.69995 16.7328 7.76622 15.0156 9.48308C13.2985 11.2005 12.2324 13.5668 12.2324 16.1662V73.0342C12.2324 75.6342 13.2985 78.0005 15.0156 79.7174C16.7328 81.4348 19.099 82.5011 21.6988 82.5011H27.3056C29.1552 82.5011 30.6543 84.0005 30.6543 85.8499V99.9912L45.6852 84.961V49.4453C45.6852 43.5662 48.0877 38.2238 51.9581 34.3534C55.8285 30.4831 61.1705 28.0808 67.0493 28.0808H123.676V16.1662C123.676 13.5668 122.61 11.2005 120.893 9.48308C119.176 7.76622 116.809 6.69995 114.209 6.69995Z" fill="url(#paint0_linear_932_7178)"/>
<path fill-rule="evenodd" clip-rule="evenodd" d="M114.209 6.69995H21.6988C19.099 6.69995 16.7328 7.76622 15.0156 9.48308C13.2985 11.2005 12.2324 13.5668 12.2324 16.1662V73.0342C12.2324 75.6342 13.2985 78.0005 15.0156 79.7174C16.7328 81.4348 19.099 82.5011 21.6988 82.5011H27.3056C29.1552 82.5011 30.6543 84.0005 30.6543 85.8499V99.9912L45.6852 84.961V49.4453C45.6852 43.5662 48.0877 38.2238 51.9581 34.3534C55.8285 30.4831 61.1705 28.0808 67.0493 28.0808H123.676V16.1662C123.676 13.5668 122.61 11.2005 120.893 9.48308C119.176 7.76622 116.809 6.69995 114.209 6.69995Z" fill="black" fill-opacity="0.2"/>
<path fill-rule="evenodd" clip-rule="evenodd" d="M125.997 35H66.1665C62.1463 35 58.4892 36.6416 55.836 39.2854C53.1823 41.9299 51.5354 45.5749 51.5352 49.5817L51.5354 86.2704C51.5354 86.2814 51.5354 86.2924 51.5352 86.3033V129.063C51.5352 133.069 53.1823 136.714 55.8355 139.358C58.489 142.003 62.1463 143.644 66.1665 143.644H156.87C157.8 143.644 158.641 144.023 159.247 144.634L184.699 170V146.974C184.699 145.135 186.195 143.644 188.041 143.644H195.904C199.924 143.644 203.581 142.003 206.235 139.358C208.888 136.714 210.535 133.069 210.535 129.063V49.5817C210.535 45.5749 208.888 41.9299 206.235 39.2854C203.581 36.6416 199.924 35 195.904 35H125.997Z" fill="white"/>
<rect x="65.5352" y="55" width="115" height="12" rx="6" fill="#F3F3F3"/>
<rect x="65.5352" y="83" width="131" height="12" rx="6" fill="#F3F3F3"/>
<rect x="65.5352" y="111" width="131" height="12" rx="6" fill="#F3F3F3"/>
</g>
<path d="M7.96966 218.2C9.55366 218.2 10.8737 218.728 11.9297 219.784C13.0017 220.84 13.5377 222.152 13.5377 223.72C13.5377 225.272 13.0017 226.584 11.9297 227.656C10.8737 228.712 9.55366 229.24 7.96966 229.24H4.53766V235H1.77766V218.2H7.96966ZM7.96966 226.648C8.78566 226.648 9.45766 226.376 9.98566 225.832C10.5137 225.272 10.7777 224.568 10.7777 223.72C10.7777 222.872 10.5137 222.176 9.98566 221.632C9.45766 221.072 8.78566 220.792 7.96966 220.792H4.53766V226.648H7.96966ZM15.7659 235V217.48H18.3579V235H15.7659ZM23.4075 230.104C23.5995 231.016 24.0395 231.72 24.7275 232.216C25.4155 232.696 26.2555 232.936 27.2475 232.936C28.6235 232.936 29.6555 232.44 30.3435 231.448L32.4795 232.696C31.2955 234.44 29.5435 235.312 27.2235 235.312C25.2715 235.312 23.6955 234.72 22.4955 233.536C21.2955 232.336 20.6955 230.824 20.6955 229C20.6955 227.208 21.2875 225.712 22.4715 224.512C23.6555 223.296 25.1755 222.688 27.0315 222.688C28.7915 222.688 30.2315 223.304 31.3515 224.536C32.4875 225.768 33.0555 227.264 33.0555 229.024C33.0555 229.296 33.0235 229.656 32.9595 230.104H23.4075ZM23.3835 227.992H30.4395C30.2635 227.016 29.8555 226.28 29.2155 225.784C28.5915 225.288 27.8555 225.04 27.0075 225.04C26.0475 225.04 25.2475 225.304 24.6075 225.832C23.9675 226.36 23.5595 227.08 23.3835 227.992ZM44.7699 223H47.3619V235H44.7699V233.272C43.7939 234.632 42.3939 235.312 40.5699 235.312C38.9219 235.312 37.5139 234.704 36.3459 233.488C35.1779 232.256 34.5939 230.76 34.5939 229C34.5939 227.224 35.1779 225.728 36.3459 224.512C37.5139 223.296 38.9219 222.688 40.5699 222.688C42.3939 222.688 43.7939 223.36 44.7699 224.704V223ZM38.2659 231.76C38.9859 232.48 39.8899 232.84 40.9779 232.84C42.0659 232.84 42.9699 232.48 43.6899 231.76C44.4099 231.024 44.7699 230.104 44.7699 229C44.7699 227.896 44.4099 226.984 43.6899 226.264C42.9699 225.528 42.0659 225.16 40.9779 225.16C39.8899 225.16 38.9859 225.528 38.2659 226.264C37.5459 226.984 37.1859 227.896 37.1859 229C37.1859 230.104 37.5459 231.024 38.2659 231.76ZM52.6408 226.312C52.6408 226.712 52.8568 227.032 53.2888 227.272C53.7368 227.496 54.2728 227.696 54.8968 227.872C55.5368 228.032 56.1768 228.224 56.8168 228.448C57.4568 228.672 57.9928 229.056 58.4248 229.6C58.8728 230.128 59.0968 230.8 59.0968 231.616C59.0968 232.768 58.6488 233.672 57.7528 234.328C56.8728 234.984 55.7608 235.312 54.4168 235.312C53.2328 235.312 52.2168 235.064 51.3688 234.568C50.5208 234.072 49.9048 233.384 49.5208 232.504L51.7528 231.208C52.1688 232.36 53.0568 232.936 54.4168 232.936C55.7768 232.936 56.4568 232.488 56.4568 231.592C56.4568 231.208 56.2328 230.896 55.7848 230.656C55.3528 230.416 54.8168 230.216 54.1768 230.056C53.5528 229.88 52.9208 229.68 52.2808 229.456C51.6408 229.232 51.0968 228.864 50.6488 228.352C50.2168 227.824 50.0008 227.16 50.0008 226.36C50.0008 225.256 50.4168 224.368 51.2488 223.696C52.0968 223.024 53.1448 222.688 54.3928 222.688C55.3848 222.688 56.2648 222.912 57.0328 223.36C57.8168 223.792 58.4168 224.4 58.8328 225.184L56.6488 226.408C56.2328 225.496 55.4808 225.04 54.3928 225.04C53.8968 225.04 53.4808 225.152 53.1448 225.376C52.8088 225.584 52.6408 225.896 52.6408 226.312ZM63.1106 230.104C63.3026 231.016 63.7426 231.72 64.4306 232.216C65.1186 232.696 65.9586 232.936 66.9506 232.936C68.3266 232.936 69.3586 232.44 70.0466 231.448L72.1826 232.696C70.9986 234.44 69.2466 235.312 66.9266 235.312C64.9746 235.312 63.3986 234.72 62.1986 233.536C60.9986 232.336 60.3986 230.824 60.3986 229C60.3986 227.208 60.9906 225.712 62.1746 224.512C63.3586 223.296 64.8786 222.688 66.7346 222.688C68.4946 222.688 69.9346 223.304 71.0546 224.536C72.1906 225.768 72.7586 227.264 72.7586 229.024C72.7586 229.296 72.7266 229.656 72.6626 230.104H63.1106ZM63.0866 227.992H70.1426C69.9666 227.016 69.5586 226.28 68.9186 225.784C68.2946 225.288 67.5586 225.04 66.7106 225.04C65.7506 225.04 64.9506 225.304 64.3106 225.832C63.6706 226.36 63.2626 227.08 63.0866 227.992ZM83.3673 226.312C83.3673 226.712 83.5833 227.032 84.0153 227.272C84.4633 227.496 84.9993 227.696 85.6233 227.872C86.2633 228.032 86.9033 228.224 87.5433 228.448C88.1833 228.672 88.7193 229.056 89.1513 229.6C89.5993 230.128 89.8233 230.8 89.8233 231.616C89.8233 232.768 89.3753 233.672 88.4793 234.328C87.5993 234.984 86.4873 235.312 85.1433 235.312C83.9593 235.312 82.9433 235.064 82.0953 234.568C81.2473 234.072 80.6313 233.384 80.2473 232.504L82.4793 231.208C82.8953 232.36 83.7833 232.936 85.1433 232.936C86.5033 232.936 87.1833 232.488 87.1833 231.592C87.1833 231.208 86.9593 230.896 86.5113 230.656C86.0793 230.416 85.5433 230.216 84.9033 230.056C84.2793 229.88 83.6473 229.68 83.0073 229.456C82.3673 229.232 81.8233 228.864 81.3753 228.352C80.9433 227.824 80.7273 227.16 80.7273 226.36C80.7273 225.256 81.1433 224.368 81.9753 223.696C82.8233 223.024 83.8713 222.688 85.1193 222.688C86.1113 222.688 86.9913 222.912 87.7593 223.36C88.5433 223.792 89.1433 224.4 89.5593 225.184L87.3753 226.408C86.9593 225.496 86.2073 225.04 85.1193 225.04C84.6233 225.04 84.2073 225.152 83.8713 225.376C83.5353 225.584 83.3673 225.896 83.3673 226.312ZM93.8372 230.104C94.0292 231.016 94.4692 231.72 95.1572 232.216C95.8452 232.696 96.6852 232.936 97.6772 232.936C99.0532 232.936 100.085 232.44 100.773 231.448L102.909 232.696C101.725 234.44 99.9732 235.312 97.6532 235.312C95.7012 235.312 94.1252 234.72 92.9252 233.536C91.7252 232.336 91.1252 230.824 91.1252 229C91.1252 227.208 91.7172 225.712 92.9012 224.512C94.0852 223.296 95.6052 222.688 97.4612 222.688C99.2212 222.688 100.661 223.304 101.781 224.536C102.917 225.768 103.485 227.264 103.485 229.024C103.485 229.296 103.453 229.656 103.389 230.104H93.8372ZM93.8132 227.992H100.869C100.693 227.016 100.285 226.28 99.6452 225.784C99.0212 225.288 98.2852 225.04 97.4372 225.04C96.4772 225.04 95.6772 225.304 95.0372 225.832C94.3972 226.36 93.9892 227.08 93.8132 227.992ZM105.766 235V217.48H108.358V235H105.766ZM113.407 230.104C113.599 231.016 114.039 231.72 114.727 232.216C115.415 232.696 116.255 232.936 117.247 232.936C118.623 232.936 119.655 232.44 120.343 231.448L122.479 232.696C121.295 234.44 119.543 235.312 117.223 235.312C115.271 235.312 113.695 234.72 112.495 233.536C111.295 232.336 110.695 230.824 110.695 229C110.695 227.208 111.287 225.712 112.471 224.512C113.655 223.296 115.175 222.688 117.031 222.688C118.791 222.688 120.231 223.304 121.351 224.536C122.487 225.768 123.055 227.264 123.055 229.024C123.055 229.296 123.023 229.656 122.959 230.104H113.407ZM113.383 227.992H120.439C120.263 227.016 119.855 226.28 119.215 225.784C118.591 225.288 117.855 225.04 117.007 225.04C116.047 225.04 115.247 225.304 114.607 225.832C113.967 226.36 113.559 227.08 113.383 227.992ZM130.93 235.312C129.122 235.312 127.61 234.704 126.394 233.488C125.194 232.272 124.594 230.776 124.594 229C124.594 227.208 125.194 225.712 126.394 224.512C127.61 223.296 129.122 222.688 130.93 222.688C132.098 222.688 133.162 222.968 134.122 223.528C135.082 224.088 135.802 224.84 136.282 225.784L134.05 227.08C133.778 226.504 133.362 226.056 132.802 225.736C132.258 225.4 131.626 225.232 130.906 225.232C129.85 225.232 128.962 225.592 128.242 226.312C127.538 227.032 127.186 227.928 127.186 229C127.186 230.072 127.538 230.968 128.242 231.688C128.962 232.408 129.85 232.768 130.906 232.768C131.61 232.768 132.242 232.6 132.802 232.264C133.378 231.928 133.81 231.48 134.098 230.92L136.33 232.192C135.818 233.152 135.082 233.912 134.122 234.472C133.162 235.032 132.098 235.312 130.93 235.312ZM144.899 225.496H141.923V231.256C141.923 231.752 142.035 232.112 142.259 232.336C142.483 232.544 142.811 232.664 143.243 232.696C143.691 232.712 144.243 232.704 144.899 232.672V235C142.915 235.24 141.491 235.072 140.627 234.496C139.763 233.904 139.331 232.824 139.331 231.256V225.496H137.123V223H139.331V220.408L141.923 219.64V223H144.899V225.496ZM162.871 223H165.463V235H162.871V233.272C161.895 234.632 160.495 235.312 158.671 235.312C157.023 235.312 155.615 234.704 154.447 233.488C153.279 232.256 152.695 230.76 152.695 229C152.695 227.224 153.279 225.728 154.447 224.512C155.615 223.296 157.023 222.688 158.671 222.688C160.495 222.688 161.895 223.36 162.871 224.704V223ZM156.367 231.76C157.087 232.48 157.991 232.84 159.079 232.84C160.167 232.84 161.071 232.48 161.791 231.76C162.511 231.024 162.871 230.104 162.871 229C162.871 227.896 162.511 226.984 161.791 226.264C161.071 225.528 160.167 225.16 159.079 225.16C157.991 225.16 157.087 225.528 156.367 226.264C155.647 226.984 155.287 227.896 155.287 229C155.287 230.104 155.647 231.024 156.367 231.76ZM180.149 235.312C178.341 235.312 176.829 234.704 175.613 233.488C174.413 232.272 173.813 230.776 173.813 229C173.813 227.208 174.413 225.712 175.613 224.512C176.829 223.296 178.341 222.688 180.149 222.688C181.317 222.688 182.381 222.968 183.341 223.528C184.301 224.088 185.021 224.84 185.501 225.784L183.269 227.08C182.997 226.504 182.581 226.056 182.021 225.736C181.477 225.4 180.845 225.232 180.125 225.232C179.069 225.232 178.181 225.592 177.461 226.312C176.757 227.032 176.405 227.928 176.405 229C176.405 230.072 176.757 230.968 177.461 231.688C178.181 232.408 179.069 232.768 180.125 232.768C180.829 232.768 181.461 232.6 182.021 232.264C182.597 231.928 183.029 231.48 183.317 230.92L185.549 232.192C185.037 233.152 184.301 233.912 183.341 234.472C182.381 235.032 181.317 235.312 180.149 235.312ZM193.734 222.688C195.11 222.688 196.222 223.128 197.07 224.008C197.918 224.888 198.342 226.096 198.342 227.632V235H195.75V227.896C195.75 227 195.51 226.312 195.03 225.832C194.55 225.352 193.894 225.112 193.062 225.112C192.15 225.112 191.414 225.4 190.854 225.976C190.294 226.536 190.014 227.4 190.014 228.568V235H187.422V218.2H190.014V224.536C190.798 223.304 192.038 222.688 193.734 222.688ZM210.637 223H213.229V235H210.637V233.272C209.661 234.632 208.261 235.312 206.437 235.312C204.789 235.312 203.381 234.704 202.213 233.488C201.045 232.256 200.461 230.76 200.461 229C200.461 227.224 201.045 225.728 202.213 224.512C203.381 223.296 204.789 222.688 206.437 222.688C208.261 222.688 209.661 223.36 210.637 224.704V223ZM204.133 231.76C204.853 232.48 205.757 232.84 206.845 232.84C207.933 232.84 208.837 232.48 209.557 231.76C210.277 231.024 210.637 230.104 210.637 229C210.637 227.896 210.277 226.984 209.557 226.264C208.837 225.528 207.933 225.16 206.845 225.16C205.757 225.16 204.853 225.528 204.133 226.264C203.413 226.984 203.053 227.896 203.053 229C203.053 230.104 203.413 231.024 204.133 231.76ZM222.946 225.496H219.97V231.256C219.97 231.752 220.082 232.112 220.306 232.336C220.53 232.544 220.858 232.664 221.29 232.696C221.738 232.712 222.29 232.704 222.946 232.672V235C220.962 235.24 219.538 235.072 218.674 234.496C217.81 233.904 217.378 232.824 217.378 231.256V225.496H215.17V223H217.378V220.408L219.97 219.64V223H222.946V225.496Z" fill="#444F60"/>
<path d="M43.2558 254.4H44.5158V267H43.4358L36.4158 256.74V267H35.1558V254.4H36.2358L43.2558 264.66V254.4ZM54.7522 265.866C53.8402 266.766 52.7242 267.216 51.4042 267.216C50.0842 267.216 48.9622 266.766 48.0382 265.866C47.1262 264.954 46.6702 263.832 46.6702 262.5C46.6702 261.168 47.1262 260.052 48.0382 259.152C48.9622 258.24 50.0842 257.784 51.4042 257.784C52.7242 257.784 53.8402 258.24 54.7522 259.152C55.6762 260.052 56.1382 261.168 56.1382 262.5C56.1382 263.832 55.6762 264.954 54.7522 265.866ZM48.8842 265.038C49.5682 265.722 50.4082 266.064 51.4042 266.064C52.4002 266.064 53.2402 265.722 53.9242 265.038C54.6082 264.342 54.9502 263.496 54.9502 262.5C54.9502 261.504 54.6082 260.664 53.9242 259.98C53.2402 259.284 52.4002 258.936 51.4042 258.936C50.4082 258.936 49.5682 259.284 48.8842 259.98C48.2002 260.664 47.8582 261.504 47.8582 262.5C47.8582 263.496 48.2002 264.342 48.8842 265.038ZM62.7204 259.152H60.1284V264.606C60.1284 265.098 60.2244 265.452 60.4164 265.668C60.6084 265.872 60.8964 265.98 61.2804 265.992C61.6644 265.992 62.1444 265.98 62.7204 265.956V267C61.4604 267.192 60.5124 267.102 59.8764 266.73C59.2524 266.358 58.9404 265.65 58.9404 264.606V259.152H57.0504V258H58.9404V255.84L60.1284 255.48V258H62.7204V259.152ZM68.9124 257.784C70.0044 257.784 70.8624 258.12 71.4864 258.792C72.1224 259.452 72.4404 260.346 72.4404 261.474V267H71.2524V261.474C71.2524 260.67 71.0364 260.046 70.6044 259.602C70.1844 259.158 69.5844 258.936 68.8044 258.936C67.9404 258.936 67.2384 259.212 66.6984 259.764C66.1584 260.304 65.8884 261.144 65.8884 262.284V267H64.7004V254.4H65.8884V259.404C66.5604 258.324 67.5684 257.784 68.9124 257.784ZM75.9435 255.84C75.7755 256.008 75.5715 256.092 75.3315 256.092C75.0915 256.092 74.8875 256.008 74.7195 255.84C74.5515 255.672 74.4675 255.468 74.4675 255.228C74.4675 254.988 74.5515 254.784 74.7195 254.616C74.8875 254.448 75.0915 254.364 75.3315 254.364C75.5715 254.364 75.7755 254.448 75.9435 254.616C76.1115 254.784 76.1955 254.988 76.1955 255.228C76.1955 255.468 76.1115 255.672 75.9435 255.84ZM74.7375 267V258H75.9255V267H74.7375ZM82.6585 257.784C83.7505 257.784 84.6085 258.12 85.2325 258.792C85.8685 259.452 86.1865 260.346 86.1865 261.474V267H84.9985V261.474C84.9985 260.67 84.7825 260.046 84.3505 259.602C83.9305 259.158 83.3305 258.936 82.5505 258.936C81.6865 258.936 80.9845 259.212 80.4445 259.764C79.9045 260.304 79.6345 261.144 79.6345 262.284V267H78.4465V258H79.6345V259.404C80.3065 258.324 81.3145 257.784 82.6585 257.784ZM96.2236 258H97.4116V266.64C97.4116 267.936 96.9676 268.956 96.0796 269.7C95.1916 270.444 94.1296 270.816 92.8936 270.816C90.7816 270.816 89.3596 270.084 88.6276 268.62L89.6716 268.026C90.2116 269.118 91.2856 269.664 92.8936 269.664C93.9256 269.664 94.7356 269.388 95.3236 268.836C95.9236 268.296 96.2236 267.564 96.2236 266.64V265.236C95.3956 266.556 94.1836 267.216 92.5876 267.216C91.3036 267.216 90.2056 266.76 89.2936 265.848C88.3936 264.936 87.9436 263.82 87.9436 262.5C87.9436 261.18 88.3936 260.064 89.2936 259.152C90.2056 258.24 91.3036 257.784 92.5876 257.784C94.1836 257.784 95.3956 258.444 96.2236 259.764V258ZM90.1576 265.038C90.8416 265.722 91.6816 266.064 92.6776 266.064C93.6736 266.064 94.5136 265.722 95.1976 265.038C95.8816 264.342 96.2236 263.496 96.2236 262.5C96.2236 261.504 95.8816 260.664 95.1976 259.98C94.5136 259.284 93.6736 258.936 92.6776 258.936C91.6816 258.936 90.8416 259.284 90.1576 259.98C89.4736 260.664 89.1316 261.504 89.1316 262.5C89.1316 263.496 89.4736 264.342 90.1576 265.038ZM105.633 255.84C105.465 256.008 105.261 256.092 105.021 256.092C104.781 256.092 104.577 256.008 104.409 255.84C104.241 255.672 104.157 255.468 104.157 255.228C104.157 254.988 104.241 254.784 104.409 254.616C104.577 254.448 104.781 254.364 105.021 254.364C105.261 254.364 105.465 254.448 105.633 254.616C105.801 254.784 105.885 254.988 105.885 255.228C105.885 255.468 105.801 255.672 105.633 255.84ZM104.427 267V258H105.615V267H104.427ZM109.072 260.358C109.072 260.766 109.252 261.09 109.612 261.33C109.972 261.57 110.41 261.756 110.926 261.888C111.442 262.02 111.958 262.17 112.474 262.338C112.99 262.494 113.428 262.764 113.788 263.148C114.148 263.52 114.328 264.012 114.328 264.624C114.328 265.392 114.022 266.016 113.41 266.496C112.81 266.976 112.03 267.216 111.07 267.216C110.206 267.216 109.468 267.024 108.856 266.64C108.256 266.256 107.836 265.758 107.596 265.146L108.604 264.552C108.772 265.02 109.072 265.392 109.504 265.668C109.948 265.932 110.47 266.064 111.07 266.064C111.658 266.064 112.15 265.95 112.546 265.722C112.942 265.482 113.14 265.116 113.14 264.624C113.14 264.216 112.96 263.892 112.6 263.652C112.24 263.412 111.802 263.226 111.286 263.094C110.77 262.962 110.254 262.818 109.738 262.662C109.222 262.494 108.784 262.224 108.424 261.852C108.064 261.468 107.884 260.97 107.884 260.358C107.884 259.626 108.172 259.014 108.748 258.522C109.336 258.03 110.074 257.784 110.962 257.784C111.694 257.784 112.336 257.952 112.888 258.288C113.44 258.612 113.848 259.056 114.112 259.62L113.122 260.196C112.774 259.356 112.054 258.936 110.962 258.936C110.446 258.936 110.002 259.062 109.63 259.314C109.258 259.554 109.072 259.902 109.072 260.358ZM121.746 260.358C121.746 260.766 121.926 261.09 122.286 261.33C122.646 261.57 123.084 261.756 123.6 261.888C124.116 262.02 124.632 262.17 125.148 262.338C125.664 262.494 126.102 262.764 126.462 263.148C126.822 263.52 127.002 264.012 127.002 264.624C127.002 265.392 126.696 266.016 126.084 266.496C125.484 266.976 124.704 267.216 123.744 267.216C122.88 267.216 122.142 267.024 121.53 266.64C120.93 266.256 120.51 265.758 120.27 265.146L121.278 264.552C121.446 265.02 121.746 265.392 122.178 265.668C122.622 265.932 123.144 266.064 123.744 266.064C124.332 266.064 124.824 265.95 125.22 265.722C125.616 265.482 125.814 265.116 125.814 264.624C125.814 264.216 125.634 263.892 125.274 263.652C124.914 263.412 124.476 263.226 123.96 263.094C123.444 262.962 122.928 262.818 122.412 262.662C121.896 262.494 121.458 262.224 121.098 261.852C120.738 261.468 120.558 260.97 120.558 260.358C120.558 259.626 120.846 259.014 121.422 258.522C122.01 258.03 122.748 257.784 123.636 257.784C124.368 257.784 125.01 257.952 125.562 258.288C126.114 258.612 126.522 259.056 126.786 259.62L125.796 260.196C125.448 259.356 124.728 258.936 123.636 258.936C123.12 258.936 122.676 259.062 122.304 259.314C121.932 259.554 121.746 259.902 121.746 260.358ZM132.878 257.784C134.21 257.784 135.284 258.258 136.1 259.206C136.928 260.142 137.342 261.252 137.342 262.536C137.342 262.668 137.33 262.854 137.306 263.094H129.404C129.524 264.006 129.908 264.732 130.556 265.272C131.216 265.8 132.026 266.064 132.986 266.064C133.67 266.064 134.258 265.926 134.75 265.65C135.254 265.362 135.632 264.99 135.884 264.534L136.928 265.146C136.532 265.782 135.992 266.286 135.308 266.658C134.624 267.03 133.844 267.216 132.968 267.216C131.552 267.216 130.4 266.772 129.512 265.884C128.624 264.996 128.18 263.868 128.18 262.5C128.18 261.156 128.618 260.034 129.494 259.134C130.37 258.234 131.498 257.784 132.878 257.784ZM132.878 258.936C131.942 258.936 131.156 259.218 130.52 259.782C129.896 260.334 129.524 261.054 129.404 261.942H136.118C135.998 260.994 135.632 260.256 135.02 259.728C134.408 259.2 133.694 258.936 132.878 258.936ZM139.232 267V253.86H140.42V267H139.232ZM147.099 257.784C148.431 257.784 149.505 258.258 150.321 259.206C151.149 260.142 151.563 261.252 151.563 262.536C151.563 262.668 151.551 262.854 151.527 263.094H143.625C143.745 264.006 144.129 264.732 144.777 265.272C145.437 265.8 146.247 266.064 147.207 266.064C147.891 266.064 148.479 265.926 148.971 265.65C149.475 265.362 149.853 264.99 150.105 264.534L151.149 265.146C150.753 265.782 150.213 266.286 149.529 266.658C148.845 267.03 148.065 267.216 147.189 267.216C145.773 267.216 144.621 266.772 143.733 265.884C142.845 264.996 142.401 263.868 142.401 262.5C142.401 261.156 142.839 260.034 143.715 259.134C144.591 258.234 145.719 257.784 147.099 257.784ZM147.099 258.936C146.163 258.936 145.377 259.218 144.741 259.782C144.117 260.334 143.745 261.054 143.625 261.942H150.339C150.219 260.994 149.853 260.256 149.241 259.728C148.629 259.2 147.915 258.936 147.099 258.936ZM157.646 267.216C156.29 267.216 155.162 266.766 154.262 265.866C153.362 264.954 152.912 263.832 152.912 262.5C152.912 261.168 153.362 260.052 154.262 259.152C155.162 258.24 156.29 257.784 157.646 257.784C158.534 257.784 159.332 258 160.04 258.432C160.748 258.852 161.264 259.422 161.588 260.142L160.616 260.7C160.376 260.16 159.986 259.734 159.446 259.422C158.918 259.098 158.318 258.936 157.646 258.936C156.65 258.936 155.81 259.284 155.126 259.98C154.442 260.664 154.1 261.504 154.1 262.5C154.1 263.496 154.442 264.342 155.126 265.038C155.81 265.722 156.65 266.064 157.646 266.064C158.318 266.064 158.918 265.908 159.446 265.596C159.974 265.272 160.388 264.84 160.688 264.3L161.678 264.876C161.306 265.596 160.76 266.166 160.04 266.586C159.32 267.006 158.522 267.216 157.646 267.216ZM168.154 259.152H165.562V264.606C165.562 265.098 165.658 265.452 165.85 265.668C166.042 265.872 166.33 265.98 166.714 265.992C167.098 265.992 167.578 265.98 168.154 265.956V267C166.894 267.192 165.946 267.102 165.31 266.73C164.686 266.358 164.374 265.65 164.374 264.606V259.152H162.484V258H164.374V255.84L165.562 255.48V258H168.154V259.152ZM173.747 257.784C175.079 257.784 176.153 258.258 176.969 259.206C177.797 260.142 178.211 261.252 178.211 262.536C178.211 262.668 178.199 262.854 178.175 263.094H170.273C170.393 264.006 170.777 264.732 171.425 265.272C172.085 265.8 172.895 266.064 173.855 266.064C174.539 266.064 175.127 265.926 175.619 265.65C176.123 265.362 176.501 264.99 176.753 264.534L177.797 265.146C177.401 265.782 176.861 266.286 176.177 266.658C175.493 267.03 174.713 267.216 173.837 267.216C172.421 267.216 171.269 266.772 170.381 265.884C169.493 264.996 169.049 263.868 169.049 262.5C169.049 261.156 169.487 260.034 170.363 259.134C171.239 258.234 172.367 257.784 173.747 257.784ZM173.747 258.936C172.811 258.936 172.025 259.218 171.389 259.782C170.765 260.334 170.393 261.054 170.273 261.942H176.987C176.867 260.994 176.501 260.256 175.889 259.728C175.277 259.2 174.563 258.936 173.747 258.936ZM187.841 254.4H189.029V267H187.841V265.236C187.013 266.556 185.801 267.216 184.205 267.216C182.921 267.216 181.823 266.76 180.911 265.848C180.011 264.936 179.561 263.82 179.561 262.5C179.561 261.18 180.011 260.064 180.911 259.152C181.823 258.24 182.921 257.784 184.205 257.784C185.801 257.784 187.013 258.444 187.841 259.764V254.4ZM181.775 265.038C182.459 265.722 183.299 266.064 184.295 266.064C185.291 266.064 186.131 265.722 186.815 265.038C187.499 264.342 187.841 263.496 187.841 262.5C187.841 261.504 187.499 260.664 186.815 259.98C186.131 259.284 185.291 258.936 184.295 258.936C183.299 258.936 182.459 259.284 181.775 259.98C181.091 260.664 180.749 261.504 180.749 262.5C180.749 263.496 181.091 264.342 181.775 265.038Z" fill="#999999"/>
<defs>
<linearGradient id="paint0_linear_932_7178" x1="185.806" y1="54.9782" x2="88.3714" y2="166.508" gradientUnits="userSpaceOnUse">
<stop stop-color="#2855AE"/>
<stop offset="1" stop-color="#7292CF"/>
</linearGradient>
<clipPath id="clip0_932_7178">
<rect width="212.93" height="182" fill="white" transform="translate(5.53516)"/>
</clipPath>
</defs>
</svg>
