<svg width="18" height="16" viewBox="0 0 18 16" fill="none" xmlns="http://www.w3.org/2000/svg">
<path fill-rule="evenodd" clip-rule="evenodd" d="M6.75 0.5C5.92157 0.5 5.25 1.17157 5.25 2H2C0.895431 2 0 2.89543 0 4V14C0 15.1046 0.89543 16 2 16H16C17.1046 16 18 15.1046 18 14V4C18 2.89543 17.1046 2 16 2H12.75C12.75 1.17157 12.0784 0.5 11.25 0.5H6.75ZM16 4H2L2 14H16V4ZM11.0001 9C11.0001 10.1046 10.1046 11 9.00006 11C7.89549 11 7.00006 10.1046 7.00006 9C7.00006 7.89543 7.89549 7 9.00006 7C10.1046 7 11.0001 7.89543 11.0001 9ZM13.0001 9C13.0001 11.2091 11.2092 13 9.00006 13C6.79092 13 5.00006 11.2091 5.00006 9C5.00006 6.79086 6.79092 5 9.00006 5C11.2092 5 13.0001 6.79086 13.0001 9Z" fill="#999999"/>
</svg>
