<svg width="24" height="24" viewBox="0 0 24 24" fill="none" xmlns="http://www.w3.org/2000/svg">
<g opacity="0.5">
<path d="M16.5 21.75H7.5V20.25H16.5V21.75Z" fill="#999999"/>
<path d="M11.25 21.75L11.25 18L12.75 18L12.75 21.75L11.25 21.75Z" fill="#999999"/>
<rect x="7.75" y="2.5" width="8.5" height="12.25" rx="4.25" stroke="#999999" stroke-width="2"/>
<path fill-rule="evenodd" clip-rule="evenodd" d="M5.79411 11.2501C6.16469 14.3482 8.80164 16.75 11.9996 16.75C15.1975 16.75 17.8344 14.3482 18.205 11.2501H20.2159C19.8369 15.4549 16.303 18.75 11.9996 18.75C7.69607 18.75 4.16219 15.4549 3.7832 11.2501H5.79411ZM11.9525 0.000131607H12.0467C12.031 4.39077e-05 12.0153 0 11.9996 0C11.9839 0 11.9682 4.39077e-05 11.9525 0.000131607Z" fill="#999999"/>
</g>
</svg>
