<svg width="12" height="11" viewBox="0 0 12 11" fill="none" xmlns="http://www.w3.org/2000/svg">
<path d="M9.97501 1.34634C8.61906 2.51987 7.47188 3.637 6.42162 5.09451C5.95844 5.73737 5.44335 6.49401 5.10665 7.20839C4.91444 7.58719 4.56794 8.1791 4.44981 8.74819C3.80374 8.14712 3.10978 7.46489 2.39974 6.93051C1.89365 6.54978 0.435974 7.32603 1.02933 7.7725C2.09278 8.57237 2.97719 9.56864 4.01155 10.4042C4.44419 10.7533 5.40301 9.99517 5.62833 9.67712C6.36794 8.62926 6.46903 7.34837 7.00806 6.20537C7.83108 4.45728 9.29069 3.0213 10.7318 1.77432C11.6866 0.8838 10.7005 0.71955 9.97646 1.34634" fill="#37B34A"/>
</svg>
