<svg width="12" height="11" viewBox="0 0 12 11" fill="none" xmlns="http://www.w3.org/2000/svg">
<path d="M6.93449 0.243989C6.77827 0.400262 6.6905 0.612185 6.6905 0.833155C6.6905 1.05413 6.77827 1.26605 6.93449 1.42232L9.67783 4.16649L1.00033 4.17232C0.779312 4.17232 0.56735 4.26012 0.41107 4.4164C0.25479 4.57268 0.166992 4.78464 0.166992 5.00566C0.166992 5.22667 0.25479 5.43863 0.41107 5.59491C0.56735 5.75119 0.779312 5.83899 1.00033 5.83899L9.67866 5.83316L6.93449 8.57732C6.8549 8.65419 6.79142 8.74615 6.74774 8.84782C6.70407 8.94949 6.68108 9.05884 6.68012 9.16949C6.67916 9.28014 6.70024 9.38987 6.74214 9.49228C6.78404 9.5947 6.84592 9.68774 6.92416 9.76598C7.00241 9.84423 7.09545 9.90611 7.19786 9.94801C7.30028 9.98991 7.41001 10.011 7.52066 10.01C7.63131 10.0091 7.74066 9.98608 7.84233 9.94241C7.944 9.89873 8.03595 9.83525 8.11283 9.75566L11.1012 6.76816C11.3334 6.536 11.5175 6.26039 11.6432 5.95705C11.7689 5.6537 11.8335 5.32858 11.8335 5.00024C11.8335 4.6719 11.7689 4.34677 11.6432 4.04343C11.5175 3.74009 11.3334 3.46447 11.1012 3.23232L8.11283 0.243989C7.95655 0.087763 7.74463 0 7.52366 0C7.30269 0 7.09077 0.087763 6.93449 0.243989V0.243989Z" fill="url(#paint0_linear_964_9067)"/>
<path d="M6.93449 0.243989C6.77827 0.400262 6.6905 0.612185 6.6905 0.833155C6.6905 1.05413 6.77827 1.26605 6.93449 1.42232L9.67783 4.16649L1.00033 4.17232C0.779312 4.17232 0.56735 4.26012 0.41107 4.4164C0.25479 4.57268 0.166992 4.78464 0.166992 5.00566C0.166992 5.22667 0.25479 5.43863 0.41107 5.59491C0.56735 5.75119 0.779312 5.83899 1.00033 5.83899L9.67866 5.83316L6.93449 8.57732C6.8549 8.65419 6.79142 8.74615 6.74774 8.84782C6.70407 8.94949 6.68108 9.05884 6.68012 9.16949C6.67916 9.28014 6.70024 9.38987 6.74214 9.49228C6.78404 9.5947 6.84592 9.68774 6.92416 9.76598C7.00241 9.84423 7.09545 9.90611 7.19786 9.94801C7.30028 9.98991 7.41001 10.011 7.52066 10.01C7.63131 10.0091 7.74066 9.98608 7.84233 9.94241C7.944 9.89873 8.03595 9.83525 8.11283 9.75566L11.1012 6.76816C11.3334 6.536 11.5175 6.26039 11.6432 5.95705C11.7689 5.6537 11.8335 5.32858 11.8335 5.00024C11.8335 4.6719 11.7689 4.34677 11.6432 4.04343C11.5175 3.74009 11.3334 3.46447 11.1012 3.23232L8.11283 0.243989C7.95655 0.087763 7.74463 0 7.52366 0C7.30269 0 7.09077 0.087763 6.93449 0.243989V0.243989Z" fill="black" fill-opacity="0.2"/>
<defs>
<linearGradient id="paint0_linear_964_9067" x1="18.3376" y1="4.82986" x2="7.85147" y2="-6.88091" gradientUnits="userSpaceOnUse">
<stop stop-color="#2855AE"/>
<stop offset="1" stop-color="#7292CF"/>
</linearGradient>
</defs>
</svg>
