<svg width="12" height="11" viewBox="0 0 12 11" fill="none" xmlns="http://www.w3.org/2000/svg">
<path d="M5.06702 9.76228C5.1445 9.68488 5.20596 9.59298 5.2479 9.49181C5.28984 9.39065 5.31142 9.28221 5.31142 9.1727C5.31142 9.06318 5.28984 8.95474 5.2479 8.85358C5.20596 8.75241 5.1445 8.66051 5.06702 8.58311L2.32368 5.83894L11.0004 5.83311C11.2214 5.83311 11.4333 5.74531 11.5896 5.58903C11.7459 5.43275 11.8337 5.22079 11.8337 4.99978C11.8337 4.77876 11.7459 4.5668 11.5896 4.41052C11.4333 4.25424 11.2214 4.16644 11.0004 4.16644L2.32202 4.17228L5.06702 1.42895C5.22339 1.27269 5.31128 1.06071 5.31135 0.839656C5.31143 0.618598 5.22369 0.406562 5.06743 0.250195C4.91118 0.0938275 4.6992 0.00593757 4.47815 0.00585943C4.25709 0.00578128 4.04505 0.0935216 3.88868 0.249778L0.900352 3.23811C0.66816 3.47026 0.483974 3.74588 0.358311 4.04922C0.232647 4.35256 0.167969 4.67769 0.167969 5.00603C0.167969 5.33437 0.232647 5.65949 0.358311 5.96283C0.483974 6.26618 0.66816 6.54179 0.900352 6.77394L3.88868 9.76228C4.04496 9.9185 4.25688 10.0063 4.47785 10.0063C4.69882 10.0063 4.91075 9.9185 5.06702 9.76228Z" fill="url(#paint0_linear_964_9065)"/>
<path d="M5.06702 9.76228C5.1445 9.68488 5.20596 9.59298 5.2479 9.49181C5.28984 9.39065 5.31142 9.28221 5.31142 9.1727C5.31142 9.06318 5.28984 8.95474 5.2479 8.85358C5.20596 8.75241 5.1445 8.66051 5.06702 8.58311L2.32368 5.83894L11.0004 5.83311C11.2214 5.83311 11.4333 5.74531 11.5896 5.58903C11.7459 5.43275 11.8337 5.22079 11.8337 4.99978C11.8337 4.77876 11.7459 4.5668 11.5896 4.41052C11.4333 4.25424 11.2214 4.16644 11.0004 4.16644L2.32202 4.17228L5.06702 1.42895C5.22339 1.27269 5.31128 1.06071 5.31135 0.839656C5.31143 0.618598 5.22369 0.406562 5.06743 0.250195C4.91118 0.0938275 4.6992 0.00593757 4.47815 0.00585943C4.25709 0.00578128 4.04505 0.0935216 3.88868 0.249778L0.900352 3.23811C0.66816 3.47026 0.483974 3.74588 0.358311 4.04922C0.232647 4.35256 0.167969 4.67769 0.167969 5.00603C0.167969 5.33437 0.232647 5.65949 0.358311 5.96283C0.483974 6.26618 0.66816 6.54179 0.900352 6.77394L3.88868 9.76228C4.04496 9.9185 4.25688 10.0063 4.47785 10.0063C4.69882 10.0063 4.91075 9.9185 5.06702 9.76228Z" fill="black" fill-opacity="0.2"/>
<defs>
<linearGradient id="paint0_linear_964_9065" x1="18.3373" y1="4.83106" x2="7.8623" y2="-6.87772" gradientUnits="userSpaceOnUse">
<stop stop-color="#2855AE"/>
<stop offset="1" stop-color="#7292CF"/>
</linearGradient>
</defs>
</svg>
