<svg width="16" height="16" viewBox="0 0 16 16" fill="none" xmlns="http://www.w3.org/2000/svg">
<path d="M1.73369 0.401998C1.69765 0.440513 1.63678 0.520962 1.59609 0.57625C0.83975 1.57921 -0.0641248 3.12108 0.00358818 4.60921C0.118514 7.10092 3.48118 10.4126 4.5093 11.3684C5.53773 12.3238 9.08613 15.4358 11.5772 15.3681C11.9925 15.3579 12.4326 15.2706 12.8849 15.1084C13.9289 14.7342 14.8712 14.0222 15.4698 13.4982C15.4698 13.4982 15.5987 13.3886 15.6484 13.3358C15.7736 13.2007 15.8727 13.0034 15.9512 12.7329C15.9913 12.5947 16 12.449 16 12.3515C16 12.2428 15.9891 12.0322 15.9177 11.8405C15.8198 11.5784 15.7077 11.3908 15.5735 11.2646C15.4741 11.1724 13.2281 9.41279 13.2138 9.40285L13.1967 9.39167C13.075 9.29818 12.9479 9.22518 12.8187 9.17455C12.4802 9.04192 12.1053 9.03664 11.7627 9.15902C11.5449 9.23699 11.3489 9.36589 11.1977 9.52927L10.4258 10.3555C10.3534 10.4331 10.2189 10.5136 10.1714 10.5251C10.1214 10.5344 10.0866 10.5369 10.0642 10.5375L4.88389 5.72337C4.87147 5.71156 4.86525 5.70007 4.86184 5.69199C4.86432 5.68454 4.86743 5.67802 4.86898 5.67305C4.88793 5.63453 4.97739 5.51215 5.0892 5.39101L5.85299 4.56417C6.2571 4.12963 6.35742 3.45374 6.10024 2.92663C6.00861 2.73872 5.88312 2.59832 5.82504 2.53216L5.79491 2.49489C5.78 2.4778 3.88901 0.402619 3.80421 0.324656C3.59393 0.129282 3.26282 0.0236747 2.79224 0.0013108C2.53071 -0.0111136 2.20271 0.0659179 2.0123 0.18426C1.88992 0.260981 1.79829 0.332421 1.73369 0.401998ZM3.16032 0.999301C3.26623 1.10677 4.98732 2.99186 5.0774 3.09064L5.14077 3.16736C5.16655 3.19624 5.22712 3.26427 5.26253 3.33633C5.35447 3.52518 5.31843 3.77118 5.16934 3.93177L4.40462 4.75954C4.31516 4.85614 4.09774 5.10339 4.01139 5.30932C3.95424 5.44661 3.92721 5.5662 3.9269 5.70504C3.93622 5.9703 4.04866 6.21755 4.24683 6.40422L9.47937 11.2668C9.67847 11.4516 9.96796 11.5106 10.3401 11.442C10.6277 11.3889 10.9392 11.1715 11.107 10.9919L11.8801 10.1642C11.9316 10.1086 12 10.0645 12.077 10.0365C12.2056 9.99052 12.3522 9.9927 12.4789 10.0424C12.5529 10.0713 12.6144 10.1194 12.6345 10.1353C12.6538 10.1502 12.6693 10.161 12.6833 10.1697C12.8986 10.3365 14.8299 11.8545 14.9346 11.9427C14.9349 11.9433 14.9806 11.9946 15.0449 12.1663C15.0539 12.1906 15.0682 12.262 15.0682 12.3512C15.0682 12.4155 15.061 12.4574 15.0564 12.4726C15.0079 12.6391 14.9678 12.6975 14.9678 12.6987C14.9377 12.7289 14.875 12.7807 14.8644 12.7897C14.318 13.2678 13.4769 13.9061 12.5702 14.231C12.2118 14.3596 11.8701 14.4285 11.5533 14.4363C9.85148 14.4826 7.03673 12.4443 5.14387 10.6854C3.2507 8.92669 1.01276 6.26818 0.934486 4.56635C0.877334 3.33944 1.67529 2.01903 2.33223 1.14746L2.35739 1.11392C2.37199 1.09404 2.39839 1.05676 2.41206 1.04061C2.43535 1.01856 2.47014 0.997127 2.49779 0.979732C2.5391 0.958611 2.66738 0.928792 2.74752 0.93283C3.02272 0.946186 3.15007 0.995573 3.16032 0.999301Z" fill="#FEFEFE"/>
</svg>
