<svg width="24" height="15" viewBox="0 0 24 15" fill="none" xmlns="http://www.w3.org/2000/svg">
<path d="M11.5705 0.673828C7.14876 0.673828 3.13894 3.09298 0.180104 7.02231C-0.0613369 7.34424 -0.0613369 7.79398 0.180104 8.1159C3.13894 12.05 7.14876 14.4691 11.5705 14.4691C15.9921 14.4691 20.002 12.05 22.9608 8.12063C23.2022 7.79871 23.2022 7.34897 22.9608 7.02705C20.002 3.09298 15.9921 0.673828 11.5705 0.673828ZM11.8876 12.4287C8.95247 12.6133 6.52859 10.1942 6.71322 7.25429C6.86471 4.83041 8.82938 2.86574 11.2533 2.71424C14.1884 2.52961 16.6123 4.94876 16.4277 7.88866C16.2715 10.3078 14.3068 12.2725 11.8876 12.4287ZM11.7409 10.1847C10.1597 10.2841 8.85305 8.98225 8.9572 7.40104C9.03769 6.09442 10.0981 5.03871 11.4048 4.95349C12.986 4.85408 14.2926 6.15597 14.1884 7.73717C14.1032 9.04853 13.0428 10.1042 11.7409 10.1847Z" fill="white"/>
</svg>
