<svg width="14" height="14" viewBox="0 0 14 14" fill="none" xmlns="http://www.w3.org/2000/svg">
<path fill-rule="evenodd" clip-rule="evenodd" d="M12.5 4C13.3284 4 14 4.67157 14 5.5V10.5C14 11.3284 13.3284 12 12.5 12H12V13.5C12 13.8993 11.5549 14.1375 11.2227 13.916L8.34861 12H6.5C5.67157 12 5 11.3284 5 10.5C5 10.2239 5.22386 10 5.5 10C5.77614 10 6 10.2239 6 10.5C6 10.7761 6.22386 11 6.5 11H8.5C8.59871 11 8.69522 11.0292 8.77735 11.084L11 12.5657V11.5C11 11.2239 11.2239 11 11.5 11H12.5C12.7761 11 13 10.7761 13 10.5V5.5C13 5.22386 12.7761 5 12.5 5C12.2239 5 12 4.77614 12 4.5C12 4.22386 12.2239 4 12.5 4ZM9.5 0C10.3284 0 11 0.671573 11 1.5V7.5C11 8.32843 10.3284 9 9.5 9H5.65139L2.77735 10.916C2.44507 11.1375 2 10.8993 2 10.5V9H1.5C0.671573 9 0 8.32843 0 7.5V1.5C0 0.671573 0.671573 0 1.5 0H9.5ZM9.5 1H1.5C1.22386 1 1 1.22386 1 1.5V7.5C1 7.77614 1.22386 8 1.5 8H2.5C2.77614 8 3 8.22386 3 8.5V9.56574L5.22265 8.08397C5.30478 8.02922 5.40129 8 5.5 8H9.5C9.77614 8 10 7.77614 10 7.5V1.5C10 1.22386 9.77614 1 9.5 1Z" fill="white"/>
</svg>
