<svg width="24" height="24" viewBox="0 0 24 24" fill="none" xmlns="http://www.w3.org/2000/svg">
<path d="M22.3667 5.476L18.5307 1.64C18.03 1.16973 17.374 0.899899 16.6873 0.881829C16.0007 0.86376 15.3314 1.09871 14.8067 1.542L2.20667 14.142C1.75414 14.5983 1.47237 15.1965 1.40867 15.836L0.806665 21.674C0.787806 21.8791 0.814413 22.0857 0.884591 22.2793C0.954769 22.4729 1.06679 22.6487 1.21267 22.794C1.34348 22.9237 1.49862 23.0264 1.6692 23.0961C1.83977 23.1657 2.02242 23.2011 2.20667 23.2H2.33267L8.17066 22.668C8.81018 22.6043 9.40831 22.3225 9.86467 21.87L22.4647 9.27C22.9537 8.75335 23.218 8.06391 23.1996 7.35275C23.1813 6.64158 22.8817 5.96671 22.3667 5.476ZM7.91866 19.868L3.71866 20.26L4.09666 16.06L12.0067 8.248L15.7867 12.028L7.91866 19.868ZM17.6067 10.152L13.8547 6.4L16.5847 3.6L20.4067 7.422L17.6067 10.152Z" fill="white"/>
</svg>
